<svg xmlns="http://www.w3.org/2000/svg" xml:space="preserve" viewBox="0 0 2160 1113">
    <path fill="#5F9B8D" d="M73.57 521.39c1.226 19.456 3.592 38.293 9.648 56.395 2.407 7.194 5.801 14.182 9.626 20.752 6.656 11.436 18.174 12.658 29.74 11.995 22.253-1.277 42.875-9.017 63.293-17.238 29.2-11.757 58.556-23.256 85.398-39.98 11.425-7.12 22.319-15.097 33.378-22.793 10.623-7.392 23.381-8.21 35.265-11.73 3.116-.924 3.795.943 4.152 3.323 1.061 7.088-.87 13.55-4.4 19.563-7.949 13.544-19.962 23.07-32.297 32.242-5.994 4.457-11.974 8.938-18.095 13.217-7.496 5.24-14.969 10.545-22.748 15.34-10.035 6.186-20.417 11.806-30.556 17.828-26.487 15.728-54.337 28.238-84.264 35.84-15.315 3.891-30.974 5.976-46.47 2.52-9.457-2.108-18.52-6.396-27.44-10.416-24.753-11.156-41.113-30.047-49.696-55.697-9.605-28.703-13.428-58.255-13.263-88.473.21-38.687.306-77.465 11.432-114.907 6.907-23.247 15.587-45.994 24.106-68.728 21.09-56.278 51.805-107.283 86.85-155.783 15.503-21.454 30.964-43.042 48.038-63.22 11.201-13.237 24.438-25.126 38.227-35.712 20.716-15.904 42.154-31.034 64.3-44.87C320.94.147 368.306 10.58 390.753 42.653c9.557 13.655 14.319 29.272 14.997 45.932 1.46 35.88-7.013 69.687-22.07 102.004-9.413 20.205-20.867 39.006-37.13 54.659-14.689 14.139-22.235 14.748-38.592 2.687-7.703-5.68-11.028-13.955-14.655-22.14-.423-.954-.047-2.703.608-3.62 4.8-6.72 10.626-12.858 14.515-20.05 10.441-19.31 21.346-38.538 29.576-58.81 5.285-13.018 6.197-27.819 8.996-41.836.912-4.566 1.735-9.16 2.332-13.776.445-3.451.766-6.971.614-10.437-.559-12.722-9.052-18.705-21.031-14.36-19.49 7.067-36.598 18.213-52.281 31.678-25.88 22.22-49.271 46.748-69.997 73.875-26.712 34.962-53.61 69.852-75.654 107.982-9.858 17.052-16.75 35.82-24.946 53.828-1.723 3.786-2.908 7.855-4.946 11.451-6.497 11.47-5.625 24.889-10.05 36.86-8.722 23.593-12.958 48.155-15.641 73-2.488 23.041-3.432 46.173-1.829 69.81M1114.426 516.498c27.75 45.44 90.561 42.104 118.62.599l20.757 17.207c-5.92 5.883-11.154 11.869-17.168 16.928-31.988 26.91-80.73 30.692-116.333 8.578-25.322-15.73-40.31-38.728-44.362-68.437-3.58-26.255.024-51.222 15.157-73.568 23.28-34.376 61.32-50.103 103.34-39.5 35.933 9.066 55.382 33.862 63.145 68.672 2.465 11.052 2.475 22.652 3.686 34.774h-158.337c1.496 12.744 4.978 24.05 11.495 34.747m102.07-56.557h14.548c.147-17.974-4.65-33.253-17.663-45.131-13.197-12.047-29.236-16.247-46.637-14.913-27.779 2.131-47.656 16.227-59.136 41.544-2.487 5.484-2.945 11.888-4.484 18.5z"/>
    <path fill="#F1C233"
          d="M917.15 879.216c-10.243 35.01-20.395 69.627-30.843 105.254 12.109-1.032 23.015-1.932 33.915-2.897 11.768-1.043 23.515-2.51 35.305-3.02 3.972-.173 9.926.755 11.695 3.385 4.093 6.084 9.799 12.437 7.55 20.87-1.492 5.594-6.049 9.122-11.351 10.296-9.2 2.037-18.569 3.742-27.951 4.422-20.75 1.505-41.552 2.256-62.328 3.385-5.158.28-8.677 2.215-9.474 8.18-.654 4.893-4.995 6.346-9.353 6.677-6.19.472-11.794-1.834-15.83-6.158-6.736-7.22-15.289-8.31-24.175-8.546-10.468-.277-21.01.577-31.396-.386-5.334-.494-10.814-3.207-15.49-6.107-6.486-4.023-6.49-10.88-.728-15.88 8.234-7.148 18.143-10.592 28.743-11.534 12.751-1.133 25.572-1.566 38.372-2.03 3.042-.11 5.142-.76 6.086-3.778 3.862-12.346 7.686-24.704 11.591-37.036 8.997-28.405 18.213-56.742 27.01-85.208 13.362-43.24 26.517-86.544 39.562-129.88 1.83-6.078 2.54-12.493 3.96-19.729-11.086.647-20.846 1.034-30.571 1.846-6.787.566-13.529 1.69-20.283 2.62-1.31.18-2.63.491-3.866.952-7 2.606-10.67 1.717-15.619-3.886-3.663-4.146-5.297-12.466-2.536-16.801 1.501-2.357 4.155-4.645 6.77-5.516 14.485-4.82 28.986-9.7 43.744-13.555 10.903-2.848 22.32-3.694 33.29-6.333 6.2-1.491 12.007-4.696 17.905-7.323 7.867-3.505 15.623-5.94 24.508-3.282 4.83 1.445 10.205 1.587 15.314 1.467 12.646-.297 25.276-1.402 37.92-1.55 7.107-.083 14.284.736 21.319 1.847 3.498.553 6.984 2.294 10.062 4.174 7.39 4.517 10.354 17.7 5.307 24.729-1.629 2.269-4.987 4.254-7.764 4.579-12.88 1.506-25.85 2.218-38.755 3.535a954 954 0 0 0-35.63 4.335c-7.9 1.108-12.177 7.04-14.38 13.763-5.383 16.428-9.638 33.225-15.028 49.65-8.251 25.143-17.318 50.018-25.554 75.165-4.19 12.792-7.322 25.93-11.023 39.304M1011.17 932.14c4.321-18.01 8.04-35.758 13.069-53.127 3.268-11.288 8.195-22.13 12.85-32.97 3.44-8.016 4.392-16.177 4.314-24.804-.132-14.53 6.515-21.123 20.533-22.645 11.852-1.288 22.576 7.748 25.53 19.592 1.85 7.423 1.248 14.551-1.52 21.51-6.45 16.223-13.117 32.36-19.547 48.59-1.256 3.172-1.839 6.61-2.732 9.925l1.238 1.071c2.668-1.909 5.544-3.587 7.971-5.764 19.12-17.152 39.042-33.246 61.081-46.542 4.683-2.825 9.743-5.02 14.576-7.604 5.344-2.858 10.912-2.098 15.115 1.245a91.5 91.5 0 0 1 15.611 15.925c4.284 5.609 3.641 12.691 1.996 19.254-2.423 9.664-5.321 19.21-7.982 28.815-.164.594-.021 1.273-.021 2.916 5.856-4.935 11.099-9.444 16.44-13.834 13.927-11.448 28.576-21.786 45.222-29 11.768-5.1 20.398-2.66 28.93 6.882 6.848 7.66 9.444 16.36 10.032 26.345.988 16.764 2.804 33.479 3.885 50.24.516 8.009 5.254 11.24 12.16 12.853 1.935.452 3.842 1.074 5.706 1.769 5.265 1.962 7.88 6.074 8.365 11.415.454 4.993-1.426 9.318-5.786 11.946-20.72 12.488-47.794 11.06-60.27-17.224-5.162-11.701-5.016-23.966-4.45-36.29.283-6.136 1.078-12.25 1.646-18.373.576-6.192-3.018-9.21-8.015-5.811-9.867 6.71-19.697 13.696-28.478 21.73-15.6 14.274-30.281 29.55-45.63 44.106-4.42 4.191-9.724 7.485-14.787 10.951-3.868 2.648-7.909 2.118-11.7-.42-2.074-1.388-4.131-2.82-6.067-4.391-6.954-5.643-9.13-12.98-6.003-21.42 7.335-19.794 14.87-39.514 22.244-59.294 1.12-3.003 1.807-6.168 2.694-9.258l-1.284-1.363c-2.872 1.22-6.225 1.857-8.529 3.763-8.803 7.281-17.778 14.472-25.753 22.613-16.887 17.24-33.306 34.946-49.662 52.697-5.513 5.983-10.357 12.6-15.308 19.078-3.078 4.027-6.68 4.732-11.353 3.284-14.383-4.456-23.635-19.592-20.836-34.438 1.478-7.842 2.972-15.681 4.505-23.943M1437.358 814.276c20.136-8.74 43.913.771 53.517 21.247 9.773 20.836 9.611 41.336-2.035 61.618-9.99 17.396-20.482 34.375-35.733 47.756-14.083 12.356-29.428 23.032-46.606 30.532-6.695 2.923-14.388 3.788-21.733 4.852-2.083.301-5.29-1.426-6.676-3.227-2.99-3.887-5.136-8.425-7.926-13.21-.74 1.175-1.728 2.235-2.14 3.484-2.288 6.932-4.32 13.95-6.678 20.856-1.226 3.587-3.127 6.939-4.41 10.51-7.24 20.146-14.746 40.209-21.397 60.55-3.027 9.256-3.92 19.19-6.518 28.615-1.342 4.867-3.744 9.678-6.645 13.83-5.41 7.746-14.747 8.777-21.725 2.403-10.021-9.154-15.787-19.925-11.731-34.211 4.036-14.214 7.118-28.708 11.442-42.827 2.762-9.018 7.308-17.474 10.508-26.379 2.222-6.185 3.533-12.7 5.21-19.078.378-1.437.339-3.024.907-4.366 4.393-10.381 8.895-20.716 13.345-31.073.718-1.67 1.444-3.348 2.004-5.076 6.89-21.29 13.77-42.582 20.607-63.889 3.552-11.068 7.746-21.98 7.357-33.944-.143-4.411-1.717-7.671-5.432-9.987-8.331-5.194-7.101-13.185-5.796-20.955 1.32-7.861 4.641-11.17 12.91-12.37 5.392-.783 11.203-1.553 16.342-.317 4.385 1.055 9.455 4.111 11.795 7.815 5.065 8.019 8.575 17.019 13.157 26.52 11.576-3.976 21.96-13.043 34.08-19.679m-25.66 111.929c5.481-3.761 10.979-7.498 16.439-11.289 7.4-5.137 13.283-11.472 16.377-20.17 2.782-7.821 6.09-15.463 8.668-23.347 1.47-4.496 2.615-9.308 2.683-13.996.075-5.167-3.037-7.286-7.992-6.008-5.448 1.405-11.107 2.746-16.018 5.353-22.03 11.693-37.535 29.36-46.089 52.847-2.749 7.547-4.367 15.468-1.817 23.45 1.735 5.432 5.121 6.53 9.99 3.7 5.74-3.34 11.437-6.758 17.76-10.54M1634.719 952.718c-15.264 14.746-30.993 28.383-49.485 38.306-13.25 7.11-27.169 11.949-42.584 8.077-5.225-1.312-10.218-3.148-13.163-8.195-.083-.142-.182-.313-.318-.38-8.976-4.381-11.846-13.378-15.7-21.437-1.288-2.693-1.615-6.718-.609-9.491 5.268-14.511 10.804-28.943 16.821-43.16 7.418-17.524 18.008-33.217 28.516-49.046 13.737-20.695 29.554-39.25 48.742-54.985 9.498-7.79 19.41-14.53 32.124-15.886 9.747-1.04 18.07 1.91 25.288 8.251 14.754 12.961 29.342 26.112 44.232 38.913 3.18 2.735 3.744 4.968 2.532 8.916-4.09 13.316-8.916 26.578-11.19 40.239-3.232 19.403 3.134 37.316 14.056 53.2 2.785 4.05 8.962 5.8 13.651 8.483.966.553 2.273.474 3.374.835 5.145 1.687 11.465 2.306 12.65 8.939 1.351 7.569.797 15.186-5.656 20.63-2.276 1.919-5.457 3.48-8.38 3.803-24.39 2.699-42.897-7.093-55.358-27.842-6.132-10.212-11-21.184-16.44-31.81-7.178 7.348-15.015 15.37-23.103 23.64m-59.248-34.776c-6.596 11.592-13.021 23.254-15.927 37.047 6.942.34 11.99-2.54 16.355-5.877 13.321-10.19 26.586-20.5 39.288-31.442 18.247-15.717 34.402-33.357 45.808-54.852.942-1.775 2.236-4.516 1.532-5.81-2.746-5.055-5.638-10.28-9.589-14.366-5.075-5.249-11.332-5.271-17.8-.978-3.996 2.654-7.857 5.663-11.257 9.039-19.677 19.54-33.813 43.112-48.41 67.24M1864.614 849.264a1121 1121 0 0 0-19.074 20.01c-1.012 1.086-1.585 2.597-2.638 3.629-17.85 17.49-23.362 40.552-28.767 63.65a19 19 0 0 0-.452 5.461c1.156 18.145 4.427 19.201 19.152 16.158 17.871-3.694 35.514-8.507 53.219-12.979 2.375-.6 4.626-1.884 6.785-3.114 7.86-4.475 16.183-4.689 24.706-2.773 6.25 1.406 8.906 6.184 7.128 13.093-1.913 7.437-6.45 13.046-12.95 17.08-6.08 3.77-12.232 7.427-18.23 11.323-2.21 1.436-4.608 3.07-5.97 5.216-2.538 4.003-6.479 4.77-10.442 5.784-11.566 2.962-23.266 5.482-34.667 8.978-8.371 2.567-16.528 3.22-25.011 1.376-11.86-2.58-22.844-6.603-31.913-15.322-13.02-12.52-18.05-27.6-16.106-45.243 4.645-42.146 21.995-78.795 48.29-111.612 3.949-4.927 9.124-7.293 14.634-9.842 9.712-4.492 19.554-8.06 30.067-10.33 9.966-2.153 19.048-.975 28.047 3.296 11.205 5.32 20.627 12.793 27.86 22.899 4.175 5.832 4.791 12.101.904 18.234-3.82 6.028-7.959 11.873-12.25 17.579-2.897 3.853-7.166 3.787-11.409 2.72-6.47-1.626-11.69-4.635-13.503-11.772-1.796-7.073-10.01-13.476-17.41-13.499M2097.626 780.967c8.035-.664 15.654-2.138 23.183-1.77 13.392.653 22.751 18.066 16.629 30.142-.788 1.555-2.706 3.026-4.4 3.53-3.322.987-6.836 1.532-10.305 1.794-19.895 1.504-39.794 2.951-59.704 4.232-5.487.352-9.334 2.637-12.162 7.347-11.587 19.302-22.251 39.007-27.264 61.217-4.752 21.055-9.703 42.072-13.944 63.23-2.523 12.59 2.476 18.314 15.412 18.392 9.467.057 19.21.423 28.335-1.593 9.75-2.153 19.12-6.5 28.27-10.726 6.753-3.12 13.012-7.393 19.243-11.526 3.234-2.145 5.349-1.328 7.879.96 9.477 8.574 6.894 21.502-.092 30.19-4.147 5.156-10.155 9.022-15.811 12.726-24.162 15.823-51.035 21.345-79.516 19.63-11.017-.663-19.002-7.386-25.97-15.33-14.773-16.842-18.278-36.202-16.384-58.362 2.18-25.513 10.02-49.085 18.822-72.577 4.54-12.117 10.187-23.819 15.332-35.71.71-1.641 1.41-3.287 2.342-5.46-7.003-2.043-13.534-3.873-20.018-5.858-9.567-2.929-12.087-9.211-7.346-18.063.628-1.174 1.305-2.322 1.925-3.5 2.862-5.427 6.602-8.256 13.483-7.717 7.548.592 15.237-.726 22.87-1.08 5.468-.253 8.694-3.255 11.15-7.887 7.94-14.981 15.914-29.949 24.207-44.736 3.078-5.488 6.826-10.654 10.703-15.63 8.27-10.612 22.808-12.802 33.941-5.415 5.999 3.98 8.337 11.598 4.766 17.846-7.919 13.855-16.202 27.503-24.343 41.23-.34.572-.932 1.054-1.093 1.661-.696 2.635-1.276 5.3-1.898 7.955 2.617.583 5.228 1.61 7.854 1.65 4.478.069 8.964-.482 13.904-.792"/>
    <path fill="#5F9B8D"
          d="M513.479 378.47c40.626 12.04 65.895 38.129 71.854 79.933 5.62 39.423-6.184 73.157-39.073 97.699-12.24 9.134-26.321 14.243-41.351 16.512-22.034 3.326-43.599 1.64-63.905-8.13-30.258-14.56-48.204-38.819-53.598-71.793-4.095-25.042-.873-49.239 12.961-71.14 18.195-28.806 44.548-44.436 78.517-45.976 11.334-.514 22.796 1.766 34.595 2.896m-95.251 120.637c4.295 14.832 12.352 27.17 24.482 36.776 13.939 11.038 30.155 13.926 47.419 13.458 20.51-.557 37.34-8.394 50.315-24.402 15.78-19.468 19.115-41.925 15.689-65.896-4.437-31.041-27.504-54.24-58.11-58.782-33.514-4.972-61.055 8.763-75.206 38.141-9.258 19.22-9.813 39.412-4.59 60.705M661.928 560.923v7.743h-27.436V380.288h26.19l1.476 29.389c1.638-1.884 2.6-2.898 3.46-3.992 18.433-23.448 42.633-32.94 72.066-29.886 13.505 1.402 26.17 5.057 36.748 13.982 13.323 11.24 19.676 26.16 21.574 43.086.87 7.755 1.075 15.614 1.1 23.428.11 35.315.048 70.631.048 105.947v6.37H770.2c0-1.766.002-3.668 0-5.57-.035-35.649.304-71.304-.347-106.942-.182-9.97-2.353-20.17-5.272-29.759-3.936-12.926-13.269-21.664-26.537-24.776-22.638-5.311-43.11-1.443-59.05 16.897-11.533 13.27-16.465 29.367-16.774 46.525-.571 31.808-.245 63.631-.292 95.936M886.564 499v69.71h-27.482V380.4h26.755v28.208l2.149.993c.486-.972.83-2.051 1.478-2.9 18.606-24.402 43.336-34.173 73.59-30.791 16.392 1.832 31.089 7.138 42.23 20.04 9.741 11.28 15.133 24.654 15.483 39.223.884 36.805.78 73.633 1.05 110.453.055 7.619.007 15.238.007 23.122h-26.942v-6.112c-.017-35.166.385-70.34-.306-105.493-.206-10.464-2.307-21.257-5.612-31.21-5.422-16.33-18.195-23.905-35.115-26.003-37.375-4.634-61.519 22.078-65.609 53.708-1.91 14.78-1.199 29.897-1.676 45.362M1400.925 399.782c-29.117-.7-50.822 11.012-64.19 36.569-13.502 25.815-11.958 72.195 13.77 95.7 23.233 21.225 61.192 23.66 85.057 4.79l13.328-10.544 19.367 14.682c-8.588 11.009-18.784 19.479-31.225 24.553-32.167 13.12-63.922 12.106-93.843-6.216-23.717-14.522-37.29-36.605-42.186-63.853-3.784-21.067-2.591-41.955 5.757-61.808 14.019-33.339 39.513-52.33 75.182-57.364 25.16-3.55 48.848.622 69.641 16.099 5.932 4.416 11.11 9.843 17.236 15.347l-22.084 16.828c-11.417-15.576-26.023-24.608-45.81-24.783M1546.768 418.013c0 32.655-.12 64.812.106 96.967.044 6.258.826 12.66 2.353 18.723 2.441 9.695 9.713 14.81 19.661 15.48 11.182.752 21.802-1.176 32.86-6.92.4 8.33.842 15.707.998 23.09.019.903-1.328 2.36-2.325 2.681-19.357 6.24-38.801 10.02-58.129.036-15.092-7.796-21.073-21.496-21.807-37.359-.845-18.29-.348-36.644-.376-54.97-.035-21.826-.198-43.656.128-65.477.079-5.293-1.611-6.409-6.503-6.253-10.963.35-21.944.11-33.555.11 0-7.48-.137-14.586.178-21.674.038-.859 2.5-2.276 3.86-2.304 9.827-.201 19.66-.11 29.49-.112h6.082c.112-1.968.295-3.72.298-5.47.023-14.33.167-28.66-.085-42.985-.072-4.108 1.424-5.253 5.183-5.13 5.492.179 11 .179 16.492 0 3.754-.122 5.261 1.012 5.19 5.124-.25 14.491.022 28.991-.177 43.484-.054 3.91 1.032 5.135 5.07 5.076 16.142-.237 32.29-.098 48.907-.098v24.089h-7.709c-13.496 0-26.997.229-40.484-.122-4.868-.127-6.21 1.601-5.751 6.024.256 2.472.046 4.993.045 7.99M554.646 900.336c30.235 26.503 28.185 76.489-3.849 99.347-21.289 15.19-44.538 16.462-67.27 3.664-22.805-12.84-32.28-33.887-30.757-59.546 1.75-29.468 21.229-51.892 49.755-57.116 19.039-3.487 36.741.558 52.12 13.65m-43.017 92.933c4.284-.387 8.777-.073 12.82-1.274 31.132-9.246 40.926-52.493 17.462-76.476-15.704-16.053-38.775-16.201-54.693-.352-13.82 13.76-17.724 36.607-8.801 54.578 6.593 13.279 16.74 22.215 33.212 23.524M420.012 856.858c-8.498 6.986-9.129 16.55-9.718 26.074-.197 3.195 2.257 3.05 4.52 3.042 9.135-.036 18.27-.015 28.196-.015 0 4.826.224 9.265-.181 13.646-.086.92-2.464 2.284-3.818 2.324-7.654.224-15.333.392-22.974.003-4.76-.243-5.933 1.524-5.913 5.984.144 31.642.077 63.285.077 94.928v5.76h-20.136c-.086-1.98-.243-3.91-.244-5.838-.015-31.643-.096-63.287.085-94.929.026-4.524-1.107-6.389-5.822-5.874-3.41.373-6.894.073-10.645.073v-15.9h15.82c.605-5.835.846-11.132 1.74-16.316 6.066-35.2 35.737-40.486 60.398-28.166 1.062.53 2.198 2.711 1.932 3.783-1.03 4.144-2.614 8.15-4.111 12.557-9.818-4.08-19.224-7.445-29.206-1.136M600.93 946c0-18.166.114-35.834-.082-53.498-.047-4.164 1.243-5.418 5.402-5.385 14.322.114 14.323-.032 14.321 14.434v11.596c11.403-16.59 24.008-28.812 45.191-27.094 0 5.584-.099 10.715.035 15.84.09 3.502-2.306 2.856-4.412 3.08-14.822 1.573-27.122 7.573-35.544 20.362-2.725 4.138-4.064 8.478-4.013 13.586.219 21.664.009 43.332.17 64.997.03 3.89-.998 5.476-5.06 5.112a61 61 0 0 0-10.987.001c-4.008.369-5.14-1.07-5.103-5.033.183-19.165.082-38.332.082-57.998"/>
    <path fill="#5F9C8D"
          d="M2124.516 462.456c-12.587 27.973-30.01 51.914-53.262 71.403-12.014 10.07-24.851 19.181-38.992 25.934-9.836 4.698-20.31 8.357-30.843 11.214-9.48 2.572-19.382 3.887-29.187 4.83-4.746.456-9.691-1.243-14.555-1.902-2.295-.311-4.612-.69-6.915-.661-8.18.102-15.683-2.427-23.088-5.524-8.053-3.367-16.364-6.197-24.165-10.064-5.684-2.818-10.706-6.964-16.059-10.463-2.162-1.413-4.419-2.68-6.748-4.084-16.194 19.114-34.62 36.125-43.65 61.036-7.237 0-15.245.606-23.096-.245-4.214-.456-2.38-5.174-1.54-7.45 7.447-20.175 19.63-37.48 33.815-53.38 12.163-13.636 24.277-27.385 37.353-40.118 15.402-14.996 31.651-29.142 47.848-43.296 11.798-10.312 23.995-20.18 36.226-29.981 8.603-6.894 17.689-13.187 26.304-20.067 3.89-3.107 5.198-9.47 3.524-13.04-1.693-3.612-8.022-7.26-12.044-6.299-2.618.626-5.247 2.014-7.394 3.676-18.261 14.135-36.739 28.018-54.517 42.743-23.497 19.462-46.176 39.878-67.351 61.902-4.571 4.755-4.579 4.628-7.472-1.423-4.174-8.73-6.783-17.901-9.425-27.218-4.9-17.279-3.277-34.621-1.987-51.828.676-9.012 4.663-17.97 8.198-26.521 3.747-9.067 7.767-18.31 13.42-26.223 6.79-9.5 14.047-18.724 23.247-26.502 10.095-8.536 21.322-14.971 32.723-21.108 6.491-3.494 14.092-5.058 21.32-7.029 22.325-6.089 45.375-4.392 68.114-6.105a695 695 0 0 0 39.07-4.039c11.912-1.579 23.768-3.68 35.572-5.95 7.054-1.356 13.924-3.65 20.946-5.208 6.533-1.45 13.203-2.292 19.734-3.751 6.359-1.421 12.592-3.4 18.933-4.912a75 75 0 0 1 11.204-1.804c.741-.06 2.383 1.829 2.36 2.79-.479 20.095-1.101 40.188-1.797 60.278-.12 3.472-.988 6.925-1.022 10.392-.15 15.126-2.505 29.923-5.85 44.638-1.562 6.872-1.866 14.038-3.542 20.873-2.11 8.601-4.818 17.078-7.695 25.462-2.177 6.342-5.025 12.453-7.715 19.024"/>
</svg>