<svg xmlns="http://www.w3.org/2000/svg" viewBox="0 0 64 64"><path d="M63.45 30.881a1.98 1.98 0 0 0-1.171-.986L61 29.487V26c0-1.103-.897-2-2-2H45.847L19.461 4.379a1.98 1.98 0 0 0-1.484-.375 1.98 1.98 0 0 0-1.314.785L1.147 25.652a1.995 1.995 0 0 0 .412 2.798L3 29.523v1.95L.42 39.594a1.98 1.98 0 0 0 .13 1.525c.246.475.662.825 1.171.986L3 42.512V52c0 1.103.897 2 2 2h30.916l8.975 6.674a1.98 1.98 0 0 0 1.484.375 1.98 1.98 0 0 0 1.313-.786l2.123-2.854 3.385 1.078a1.99 1.99 0 0 0 1.513-.138c.479-.248.83-.665.984-1.164L56.707 54H59c1.103 0 2-.897 2-2v-9.637l2.203-2.963c.319-.429.453-.956.375-1.485a2 2 0 0 0-.785-1.313l-.443-.329 1.23-3.866a2 2 0 0 0-.13-1.526M59 28.85l-3.104-.989a4.9 4.9 0 0 1-.785-1.86H59zM53.082 26a6.87 6.87 0 0 0 1.425 3.342c.132.167.317.285.521.341l1.763.562a10 10 0 0 0-.193 1.751L48.536 26zm-3.465 28.319a7 7 0 0 0-8.283 1.218L7.503 30.38a7.005 7.005 0 0 0-1.218-8.284l8.451-11.363a6.96 6.96 0 0 0 3.317.849 7 7 0 0 0 4.966-2.065l33.83 25.157a7.005 7.005 0 0 0 1.218 8.284zM18.268 5.983l3.128 2.326a5.01 5.01 0 0 1-5.455.802zM2.752 26.846l2.327-3.128a5.01 5.01 0 0 1 .802 5.456zm.755 9.638a5.01 5.01 0 0 1 2.538 4.898l-3.719-1.183zM5 48.101A5.02 5.02 0 0 1 8.899 52H5zM10.92 52A7.005 7.005 0 0 0 5 46.08v-2.931l21.384 6.804a1.003 1.003 0 0 0 1.257-.65 1 1 0 0 0-.65-1.256l-19.02-6.052a7.01 7.01 0 0 0-3.852-7.438l1.08-3.4L33.226 52zm35.164 7.069-3.128-2.326a5.01 5.01 0 0 1 5.455-.802zM59 52h-1.749a1 1 0 0 0-.691-.844 1.004 1.004 0 0 0-1.254.654l-1.512 4.767-2.72-.866L59 45.052zm.272-10.665a5.01 5.01 0 0 1-.802-5.455l3.129 2.327zm-.597-7.795a9.2 9.2 0 0 1 .03-2.685l2.968.946-1.021 3.209z"/><path d="M38.143 24.502a9.92 9.92 0 0 0-7.422-1.869 9.93 9.93 0 0 0-6.57 3.926c-3.29 4.426-2.367 10.702 2.058 13.992a9.93 9.93 0 0 0 7.422 1.87 9.93 9.93 0 0 0 6.569-3.927 9.94 9.94 0 0 0 1.87-7.422 9.94 9.94 0 0 0-3.927-6.57m.452 12.798a7.95 7.95 0 0 1-5.255 3.142 7.97 7.97 0 0 1-5.938-1.496c-3.54-2.632-4.278-7.653-1.646-11.193a7.95 7.95 0 0 1 5.256-3.141 7.93 7.93 0 0 1 5.938 1.496 7.95 7.95 0 0 1 3.141 5.255 7.95 7.95 0 0 1-1.496 5.937"/><path d="m34.954 27.115-.707.951a3 3 0 0 0-3.285 1.065 3.004 3.004 0 0 0 .504 4.109.987.987 0 0 1 .196.669 1 1 0 0 1-.343.685 1.03 1.03 0 0 1-.727.241 1 1 0 0 1-.925-1.07 1 1 0 0 0-.925-1.069.986.986 0 0 0-1.07.925 2.98 2.98 0 0 0 .724 2.18c.018.021.04.035.058.055l-.66.888a.999.999 0 1 0 1.605 1.193l.85-1.142c.067.009.132.029.2.034q.111.009.222.009a2.98 2.98 0 0 0 1.958-.731 3.005 3.005 0 0 0 .348-4.182 1 1 0 0 0-.202-.201.999.999 0 0 1 1.191-1.606l.002.002.002.001a1 1 0 0 1 .392.656c.081.546.597.921 1.135.843a1 1 0 0 0 .843-1.136 3 3 0 0 0-.213-.751c-.072-.167-.178-.315-.278-.466l.713-.958a1 1 0 0 0-.205-1.399 1.006 1.006 0 0 0-1.403.205"/></svg>