<svg xmlns="http://www.w3.org/2000/svg" viewBox="0 0 24 24"><path d="M4 10a2 2 0 1 0 2 2 2 2 0 0 0-2-2m0 3a1 1 0 1 1 1-1 1 1 0 0 1-1 1m8.5-3a5.5 5.5 0 1 0 5.5 5.5 5.51 5.51 0 0 0-5.5-5.5m0 10a4.5 4.5 0 1 1 4.5-4.5 4.5 4.5 0 0 1-4.5 4.5m10-12H22v-.5A1.5 1.5 0 0 0 20.5 6h-1A1.5 1.5 0 0 0 18 7.5V8h-.78a.5.5 0 0 1-.47-.34L16.2 6a1.5 1.5 0 0 0-1.42-1h-4.56A1.5 1.5 0 0 0 8.8 6l-.55 1.66a.5.5 0 0 1-.47.34H7v-.5A1.5 1.5 0 0 0 5.5 6h-2A1.5 1.5 0 0 0 2 7.5V8h-.5A1.5 1.5 0 0 0 0 9.5v12A1.5 1.5 0 0 0 1.5 23h21a1.5 1.5 0 0 0 1.5-1.5v-12A1.5 1.5 0 0 0 22.5 8M19 7.5a.5.5 0 0 1 .5-.5h1a.5.5 0 0 1 .5.5V8h-2Zm-16 0a.5.5 0 0 1 .5-.5h2a.5.5 0 0 1 .5.5V8H3Zm20 14a.5.5 0 0 1-.5.5h-21a.5.5 0 0 1-.5-.5v-12a.5.5 0 0 1 .5-.5h6.28A1.5 1.5 0 0 0 9.2 8l.54-1.63a.5.5 0 0 1 .48-.37h4.56a.5.5 0 0 1 .47.34L15.8 8a1.5 1.5 0 0 0 1.42 1h5.28a.5.5 0 0 1 .5.5ZM11.5 8h2a.5.5 0 0 0 0-1h-2a.5.5 0 0 0 0 1m1 4a3.5 3.5 0 1 0 3.5 3.5 3.5 3.5 0 0 0-3.5-3.5m0 6a2.5 2.5 0 1 1 2.5-2.5 2.5 2.5 0 0 1-2.5 2.5m7-8a.5.5 0 1 0 .5.5.5.5 0 0 0-.5-.5"/></svg>