<svg xmlns="http://www.w3.org/2000/svg" viewBox="0 0 128 128"><path d="M40 76.43c-.82 0-1.64-.33-2.23-.99a37.9 37.9 0 0 1-8.89-17.28c-.35-1.62.67-3.22 2.29-3.57a2.99 2.99 0 0 1 3.57 2.29 32 32 0 0 0 7.49 14.55 3.004 3.004 0 0 1-.22 4.24c-.57.51-1.29.76-2.01.76m61.82-56.96A11.48 11.48 0 0 0 90.5 10c-2 0-3.92.53-5.62 1.48A12.56 12.56 0 0 0 74.52 6c-3.65 0-6.96 1.56-9.25 4.08C63.16 7.59 60.01 6 56.5 6c-5.35 0-9.84 3.68-11.12 8.63A11.44 11.44 0 0 0 39.5 13C33.16 13 28 18.16 28 24.5v16C28 46.84 33.16 52 39.5 52c4.44 0 8.3-2.54 10.21-6.24 1.9 1.4 4.25 2.24 6.79 2.24 3.15 0 6.09-1.25 8.28-3.52a2.99 2.99 0 0 0-.08-4.24 2.99 2.99 0 0 0-4.24.08A5.47 5.47 0 0 1 56.5 42a5.51 5.51 0 0 1-5.5-5.5v-19c0-3.03 2.47-5.5 5.5-5.5s5.5 2.47 5.5 5.5c0 1.34.89 2.47 2.11 2.85.03.01.05.02.08.02.13.04.27.07.41.09.05.01.09.03.15.03.11.01.21.02.32.02 1.51 0 2.82-1.14 2.98-2.68A6.48 6.48 0 0 1 74.52 12a6.53 6.53 0 0 1 6.3 4.83c.43 1.6 2.07 2.55 3.67 2.12.06-.01.1-.04.16-.06a2.93 2.93 0 0 0 1.66-.97A5.54 5.54 0 0 1 90.5 16c2.67 0 4.95 1.9 5.42 4.53A3 3 0 0 0 98.87 23c.17 0 .35-.02.53-.05a2.997 2.997 0 0 0 2.42-3.48M45 40.5c0 3.03-2.47 5.5-5.5 5.5S34 43.53 34 40.5v-16c0-3.03 2.47-5.5 5.5-5.5s5.5 2.47 5.5 5.5v16"/><path d="M102.18 30.17c-.03-.06-.07-.12-.11-.18a11.38 11.38 0 0 0-5.71-4.54l-17.85-6.5c-5.96-2.17-12.57.92-14.74 6.87a11.4 11.4 0 0 0 .38 8.79c1.3 2.78 3.6 4.9 6.49 5.95l7.19 2.62c-8.3 3.62-14.12 11.9-14.12 21.52 0 1.66 1.34 3 3 3s3-1.34 3-3c0-9.62 7.83-17.45 17.45-17.45h2.35c1.46 0 2.7-1.05 2.95-2.48s-.56-2.84-1.93-3.34l-17.85-6.5a5.45 5.45 0 0 1-3.1-2.84 5.44 5.44 0 0 1-.18-4.21 5.515 5.515 0 0 1 7.05-3.29l17.85 6.5c1.07.39 1.98 1.09 2.63 2.01.04.07.08.14.13.21.61.91.94 1.97.94 3.07V50c0 14.24-9.56 26.9-23.24 30.79a3.01 3.01 0 0 0-2.07 3.71 3.006 3.006 0 0 0 2.88 2.18c.27 0 .55-.04.82-.12 1.23-.35 2.43-.77 3.6-1.23v38.53c0 1.66 1.34 3 3 3s3-1.34 3-3V82.3c10.95-6.81 18-18.97 18-32.3V36.38c.01-2.22-.62-4.36-1.81-6.21M40 126.86c-1.66 0-3-1.34-3-3V73.43c0-1.66 1.34-3 3-3s3 1.34 3 3v50.43c0 1.65-1.34 3-3 3"/></svg>