<svg xmlns="http://www.w3.org/2000/svg" viewBox="0 0 64 64"><path fill="#231f20" d="M19.7 40c-.1 0-.3 0-.4-.1L1.6 32.4c-.4-.1-.6-.5-.6-.9s.3-.7.6-.9L61.7 7.3c.5-.2 1 0 1.2.4s.1 1-.3 1.2l-42.4 31c-.1.1-.3.1-.5.1M4.4 31.6l15.1 6.5 36.2-26.4z"/><path fill="#231f20" d="M24.8 56.7c-.4 0-.8-.3-.9-.7l-5.2-16.7c-.1-.4 0-.8.4-1.1L61.5 7.4c.4-.3 1-.2 1.3.1.3.4.3 1 0 1.3L29.6 42.9l-3.9 13.2c0 .4-.4.6-.9.6.1 0 0 0 0 0m-4-17.2 4.1 13.1 3-10.4c0-.2.1-.3.2-.4l25.6-26.2z"/><path fill="#231f20" d="M52.2 52.4c-.1 0-.2 0-.3-.1l-23.4-9c-.3-.1-.5-.4-.6-.7s0-.7.3-.9L61.3 7.6c.3-.3.8-.4 1.2-.2s.6.6.5 1.1l-9.8 43.2c-.1.3-.2.5-.5.6-.2 0-.3.1-.5.1M30.5 42.1l21.1 8.1 8.8-38.9z"/><path fill="#231f20" d="M24.8 56.7c-.1 0-.3 0-.4-.1-.4-.2-.6-.7-.5-1.1l3.9-13.4c.1-.3.3-.5.5-.6s.5-.1.8 0l4.5 1.7q.45.15.6.6c.15.45 0 .6-.1.8l-8.4 11.6c-.3.4-.6.5-.9.5m4.6-13.1-2.1 7.2 4.6-6.2z"/></svg>